<?xml version="1.0" encoding="UTF-8"?>
<svg id="Layer_1" data-name="Layer 1" xmlns="http://www.w3.org/2000/svg" viewBox="0 0 1080 1080">
  <defs>
    <style>
      .cls-1 {
        fill: #dc3c05;
      }

      .cls-2 {
        font-size: 22px;
      }

      .cls-2, .cls-3 {
        font-family: ArialMT, Arial;
      }

      .cls-3 {
        font-size: 30px;
      }

      .cls-4, .cls-5 {
        fill: none;
        stroke: #1d1d1b;
      }

      .cls-4, .cls-5, .cls-6 {
        stroke-linecap: round;
        stroke-linejoin: round;
      }

      .cls-4, .cls-6 {
        stroke-width: 4px;
      }

      .cls-5 {
        stroke-width: 2px;
      }

      .cls-6 {
        fill: #fdb39b;
        stroke: #dc3c05;
      }

      .cls-7 {
        fill: #1d1d1b;
      }
    </style>
  </defs>
  <path class="cls-6" d="m527.53,301.92l-282.37,460.87c-5.97,9.75,1.04,22.27,12.47,22.27h564.74c11.43,0,18.44-12.52,12.47-22.27l-282.37-460.87c-5.71-9.31-19.24-9.31-24.95,0Z"/>
  <line class="cls-5" x1="1032.52" y1="459.48" x2="230.19" y2="459.48"/>
  <line class="cls-5" x1="1032.52" y1="622.06" x2="230.19" y2="622.06"/>
  <g>
    <path d="m473.25,352.16l8.25-21.47h3.06l8.79,21.47h-3.24l-2.5-6.5h-8.98l-2.36,6.5h-3.02Zm6.2-8.82h7.28l-2.24-5.95c-.68-1.81-1.19-3.29-1.52-4.45-.27,1.38-.66,2.74-1.16,4.1l-2.36,6.3Z"/>
    <path d="m505.47,352.16v-2.29c-1.21,1.76-2.86,2.64-4.94,2.64-.92,0-1.78-.18-2.57-.53-.8-.35-1.39-.79-1.77-1.33s-.66-1.18-.81-1.96c-.11-.52-.16-1.34-.16-2.46v-9.64h2.64v8.63c0,1.38.05,2.3.16,2.78.17.69.52,1.24,1.05,1.63s1.2.59,1.99.59,1.53-.2,2.23-.61,1.18-.96,1.47-1.66c.29-.7.43-1.71.43-3.04v-8.33h2.64v15.56h-2.36Z"/>
    <path d="m517.72,349.8l.38,2.33c-.74.16-1.41.23-1.99.23-.96,0-1.7-.15-2.23-.45s-.9-.7-1.11-1.19-.32-1.53-.32-3.11v-8.95h-1.93v-2.05h1.93v-3.85l2.62-1.58v5.43h2.65v2.05h-2.65v9.1c0,.75.05,1.24.14,1.45.09.21.24.39.45.51s.51.19.9.19c.29,0,.68-.03,1.16-.1Z"/>
    <path d="m519.32,344.38c0-2.88.8-5.01,2.4-6.4,1.34-1.15,2.97-1.73,4.89-1.73,2.14,0,3.89.7,5.24,2.1s2.04,3.34,2.04,5.81c0,2-.3,3.58-.9,4.72-.6,1.15-1.47,2.04-2.62,2.67-1.15.63-2.4.95-3.76.95-2.18,0-3.94-.7-5.28-2.09s-2.01-3.41-2.01-6.04Zm2.71,0c0,1.99.43,3.48,1.3,4.48s1.96,1.49,3.28,1.49,2.4-.5,3.27-1.49,1.3-2.51,1.3-4.56c0-1.92-.44-3.38-1.31-4.37-.88-.99-1.96-1.49-3.26-1.49s-2.41.49-3.28,1.48-1.3,2.48-1.3,4.47Z"/>
    <path d="m536.95,352.16v-15.56h2.37v2.36c.61-1.1,1.17-1.83,1.68-2.18.51-.35,1.08-.53,1.69-.53.89,0,1.79.28,2.71.85l-.91,2.45c-.64-.38-1.29-.57-1.93-.57-.58,0-1.09.17-1.55.52s-.79.83-.98,1.44c-.29.94-.44,1.96-.44,3.08v8.14h-2.64Z"/>
    <path d="m557.62,347.15l2.72.34c-.43,1.59-1.23,2.83-2.39,3.71s-2.65,1.32-4.45,1.32c-2.28,0-4.08-.7-5.41-2.1-1.33-1.4-2-3.37-2-5.9s.67-4.65,2.02-6.09,3.1-2.17,5.24-2.17,3.78.71,5.1,2.12,1.98,3.41,1.98,5.98c0,.16,0,.39-.01.7h-11.6c.1,1.71.58,3.02,1.45,3.93s1.95,1.36,3.25,1.36c.97,0,1.79-.25,2.48-.76s1.23-1.32,1.63-2.43Zm-8.66-4.26h8.69c-.12-1.31-.45-2.29-1-2.94-.84-1.02-1.93-1.52-3.27-1.52-1.21,0-2.23.41-3.05,1.22-.83.81-1.28,1.89-1.37,3.25Z"/>
    <path d="m563.66,352.16v-15.56h2.37v2.21c1.14-1.71,2.79-2.56,4.95-2.56.94,0,1.8.17,2.58.51s1.38.78,1.77,1.33.66,1.2.82,1.95c.1.49.15,1.34.15,2.56v9.57h-2.64v-9.46c0-1.07-.1-1.88-.31-2.41s-.57-.96-1.09-1.27c-.52-.32-1.14-.48-1.84-.48-1.12,0-2.09.36-2.91,1.07-.82.71-1.22,2.07-1.22,4.06v8.5h-2.64Z"/>
    <path d="m600.95,349.62c-.87.97-1.82,1.69-2.84,2.18s-2.13.73-3.33.73c-2.2,0-3.94-.74-5.23-2.23-1.04-1.21-1.57-2.56-1.57-4.06,0-1.33.43-2.53,1.28-3.6s2.13-2.01,3.83-2.82c-.97-1.11-1.61-2.02-1.93-2.71s-.48-1.36-.48-2.01c0-1.29.51-2.41,1.52-3.36,1.01-.95,2.28-1.43,3.82-1.43s2.66.45,3.6,1.35,1.4,1.98,1.4,3.24c0,2.04-1.35,3.78-4.06,5.23l3.85,4.91c.44-.86.78-1.86,1.03-2.99l2.74.59c-.47,1.88-1.1,3.42-1.9,4.63.99,1.31,2.1,2.41,3.35,3.3l-1.77,2.09c-1.06-.68-2.16-1.69-3.3-3.03Zm-1.66-2.08l-4.83-5.99c-1.43.85-2.39,1.64-2.89,2.37s-.75,1.45-.75,2.16c0,.87.35,1.77,1.04,2.71s1.67,1.41,2.94,1.41c.79,0,1.61-.25,2.45-.74s1.52-1.13,2.03-1.91Zm-3.71-9.11c1.14-.67,1.88-1.26,2.22-1.77.34-.51.5-1.07.5-1.68,0-.73-.23-1.33-.7-1.79s-1.04-.7-1.74-.7-1.31.23-1.78.69-.71,1.02-.71,1.68c0,.33.08.68.26,1.05.17.37.43.75.77,1.16l1.17,1.36Z"/>
    <path d="m499.8,388.16v-21.47h8.1c1.43,0,2.51.07,3.27.21,1.05.18,1.94.51,2.65,1s1.29,1.18,1.72,2.07c.43.89.65,1.87.65,2.93,0,1.83-.58,3.37-1.74,4.64s-3.26,1.9-6.3,1.9h-5.51v8.73h-2.84Zm2.84-11.26h5.55c1.84,0,3.14-.34,3.91-1.03s1.16-1.65,1.16-2.89c0-.9-.23-1.67-.68-2.31-.46-.64-1.05-1.06-1.79-1.27-.48-.13-1.36-.19-2.65-.19h-5.49v7.68Z"/>
    <path d="m518.49,380.38c0-2.88.8-5.01,2.4-6.4,1.34-1.15,2.97-1.73,4.89-1.73,2.14,0,3.89.7,5.24,2.1s2.04,3.34,2.04,5.81c0,2-.3,3.58-.9,4.72-.6,1.15-1.47,2.04-2.62,2.67-1.15.63-2.4.95-3.76.95-2.18,0-3.94-.7-5.28-2.09s-2.01-3.41-2.01-6.04Zm2.71,0c0,1.99.43,3.48,1.3,4.48s1.96,1.49,3.28,1.49,2.4-.5,3.27-1.49,1.3-2.51,1.3-4.56c0-1.92-.44-3.38-1.31-4.37-.88-.99-1.96-1.49-3.26-1.49s-2.41.49-3.28,1.48-1.3,2.48-1.3,4.47Z"/>
    <path d="m539.03,388.16l-4.76-15.56h2.72l2.48,8.98.92,3.34c.04-.17.31-1.24.81-3.21l2.48-9.11h2.71l2.33,9.02.78,2.97.89-3,2.67-8.99h2.56l-4.86,15.56h-2.74l-2.48-9.32-.6-2.65-3.15,11.97h-2.75Z"/>
    <path d="m568.47,383.15l2.72.34c-.43,1.59-1.23,2.83-2.39,3.71s-2.65,1.32-4.45,1.32c-2.28,0-4.08-.7-5.41-2.1-1.33-1.4-2-3.37-2-5.9s.67-4.65,2.02-6.09,3.1-2.17,5.24-2.17,3.78.71,5.1,2.12,1.98,3.41,1.98,5.98c0,.16,0,.39-.01.7h-11.6c.1,1.71.58,3.02,1.45,3.93s1.95,1.36,3.25,1.36c.97,0,1.79-.25,2.48-.76s1.23-1.32,1.63-2.43Zm-8.66-4.26h8.69c-.12-1.31-.45-2.29-1-2.94-.84-1.02-1.93-1.52-3.27-1.52-1.21,0-2.23.41-3.05,1.22-.83.81-1.28,1.89-1.37,3.25Z"/>
    <path d="m574.47,388.16v-15.56h2.37v2.36c.61-1.1,1.17-1.83,1.68-2.18.51-.35,1.08-.53,1.69-.53.89,0,1.79.28,2.71.85l-.91,2.45c-.64-.38-1.29-.57-1.93-.57-.58,0-1.09.17-1.55.52s-.79.83-.98,1.44c-.29.94-.44,1.96-.44,3.08v8.14h-2.64Z"/>
    <path d="m487.92,422.24c-.98.83-1.92,1.42-2.82,1.76s-1.87.51-2.91.51c-1.71,0-3.02-.42-3.94-1.25s-1.38-1.9-1.38-3.2c0-.76.17-1.46.52-2.09s.8-1.14,1.36-1.52c.56-.38,1.19-.67,1.9-.86.52-.14,1.3-.27,2.34-.4,2.13-.25,3.7-.56,4.7-.91,0-.36.01-.59.01-.69,0-1.07-.25-1.83-.75-2.27-.67-.6-1.67-.89-3-.89-1.24,0-2.16.22-2.75.65-.59.43-1.03,1.2-1.31,2.31l-2.58-.35c.23-1.1.62-1.99,1.16-2.67s1.31-1.2,2.33-1.57,2.19-.55,3.53-.55,2.41.16,3.24.47,1.44.71,1.83,1.18.66,1.07.82,1.79c.09.45.13,1.26.13,2.43v3.52c0,2.45.06,4,.17,4.65.11.65.33,1.27.67,1.87h-2.75c-.27-.55-.45-1.19-.53-1.92Zm-.22-5.89c-.96.39-2.39.72-4.31,1-1.08.16-1.85.33-2.3.53s-.8.48-1.04.86-.37.79-.37,1.25c0,.7.27,1.29.8,1.76.53.47,1.31.7,2.34.7s1.92-.22,2.71-.67,1.37-1.05,1.74-1.82c.28-.6.42-1.47.42-2.64v-.97Z"/>
    <path d="m494.45,424.16v-15.56h2.37v2.21c1.14-1.71,2.79-2.56,4.95-2.56.94,0,1.8.17,2.58.51s1.38.78,1.77,1.33.66,1.2.82,1.95c.1.49.15,1.34.15,2.56v9.57h-2.64v-9.46c0-1.07-.1-1.88-.31-2.41s-.57-.96-1.09-1.27c-.52-.32-1.14-.48-1.84-.48-1.12,0-2.09.36-2.91,1.07-.82.71-1.22,2.07-1.22,4.06v8.5h-2.64Z"/>
    <path d="m521.29,422.24c-.98.83-1.92,1.42-2.82,1.76s-1.87.51-2.91.51c-1.71,0-3.02-.42-3.94-1.25s-1.38-1.9-1.38-3.2c0-.76.17-1.46.52-2.09s.8-1.14,1.36-1.52c.56-.38,1.19-.67,1.9-.86.52-.14,1.3-.27,2.34-.4,2.13-.25,3.7-.56,4.7-.91,0-.36.01-.59.01-.69,0-1.07-.25-1.83-.75-2.27-.67-.6-1.67-.89-3-.89-1.24,0-2.16.22-2.75.65-.59.43-1.03,1.2-1.31,2.31l-2.58-.35c.23-1.1.62-1.99,1.16-2.67s1.31-1.2,2.33-1.57,2.19-.55,3.53-.55,2.41.16,3.24.47,1.44.71,1.83,1.18.66,1.07.82,1.79c.09.45.13,1.26.13,2.43v3.52c0,2.45.06,4,.17,4.65.11.65.33,1.27.67,1.87h-2.75c-.27-.55-.45-1.19-.53-1.92Zm-.22-5.89c-.96.39-2.39.72-4.31,1-1.08.16-1.85.33-2.3.53s-.8.48-1.04.86-.37.79-.37,1.25c0,.7.27,1.29.8,1.76.53.47,1.31.7,2.34.7s1.92-.22,2.71-.67,1.37-1.05,1.74-1.82c.28-.6.42-1.47.42-2.64v-.97Z"/>
    <path d="m527.76,424.16v-21.47h2.64v21.47h-2.64Z"/>
    <path d="m534.37,430.15l-.29-2.48c.58.16,1.08.23,1.51.23.59,0,1.05-.1,1.41-.29s.64-.47.86-.82c.17-.26.43-.92.81-1.96.05-.15.13-.36.23-.64l-5.9-15.59h2.84l3.24,9.01c.42,1.14.8,2.34,1.13,3.6.3-1.21.66-2.39,1.08-3.54l3.33-9.07h2.64l-5.92,15.82c-.63,1.71-1.13,2.89-1.48,3.53-.47.87-1.01,1.51-1.61,1.91s-1.33.61-2.17.61c-.51,0-1.07-.11-1.7-.32Z"/>
    <path d="m548.43,419.52l2.61-.41c.15,1.04.55,1.85,1.22,2.4.67.56,1.6.83,2.8.83s2.11-.25,2.7-.74.88-1.07.88-1.74c0-.6-.26-1.06-.78-1.41-.36-.23-1.26-.53-2.7-.89-1.93-.49-3.27-.91-4.02-1.27-.75-.36-1.31-.85-1.7-1.48-.39-.63-.58-1.33-.58-2.09,0-.69.16-1.34.48-1.93s.75-1.08,1.3-1.47c.41-.3.97-.56,1.68-.77.71-.21,1.47-.31,2.28-.31,1.22,0,2.29.18,3.21.53.92.35,1.6.83,2.04,1.43s.74,1.4.91,2.41l-2.58.35c-.12-.8-.46-1.43-1.02-1.88s-1.35-.67-2.38-.67c-1.21,0-2.08.2-2.59.6s-.78.87-.78,1.41c0,.34.11.65.32.92.21.28.55.52,1.01.7.26.1,1.04.32,2.33.67,1.87.5,3.17.91,3.9,1.22s1.32.78,1.74,1.38.63,1.36.63,2.26-.26,1.71-.77,2.48c-.51.78-1.25,1.38-2.22,1.8s-2.06.64-3.28.64c-2.02,0-3.56-.42-4.62-1.26s-1.74-2.08-2.03-3.74Z"/>
    <path d="m570.24,421.8l.38,2.33c-.74.16-1.41.23-1.99.23-.96,0-1.7-.15-2.23-.45s-.9-.7-1.11-1.19-.32-1.53-.32-3.11v-8.95h-1.93v-2.05h1.93v-3.85l2.62-1.58v5.43h2.65v2.05h-2.65v9.1c0,.75.05,1.24.14,1.45.09.21.24.39.45.51s.51.19.9.19c.29,0,.68-.03,1.16-.1Z"/>
    <path d="m583.47,419.15l2.72.34c-.43,1.59-1.23,2.83-2.39,3.71s-2.65,1.32-4.45,1.32c-2.28,0-4.08-.7-5.41-2.1-1.33-1.4-2-3.37-2-5.9s.67-4.65,2.02-6.09,3.1-2.17,5.24-2.17,3.78.71,5.1,2.12,1.98,3.41,1.98,5.98c0,.16,0,.39-.01.7h-11.6c.1,1.71.58,3.02,1.45,3.93s1.95,1.36,3.25,1.36c.97,0,1.79-.25,2.48-.76s1.23-1.32,1.63-2.43Zm-8.66-4.26h8.69c-.12-1.31-.45-2.29-1-2.94-.84-1.02-1.93-1.52-3.27-1.52-1.21,0-2.23.41-3.05,1.22-.83.81-1.28,1.89-1.37,3.25Z"/>
    <path d="m589.5,424.16v-15.56h2.37v2.21c1.14-1.71,2.79-2.56,4.95-2.56.94,0,1.8.17,2.58.51s1.38.78,1.77,1.33.66,1.2.82,1.95c.1.49.15,1.34.15,2.56v9.57h-2.64v-9.46c0-1.07-.1-1.88-.31-2.41s-.57-.96-1.09-1.27c-.52-.32-1.14-.48-1.84-.48-1.12,0-2.09.36-2.91,1.07-.82.71-1.22,2.07-1.22,4.06v8.5h-2.64Z"/>
  </g>
  <text class="cls-3" transform="translate(474.13 551.51)"><tspan x="0" y="0">Analysten</tspan></text>
  <text class="cls-3" transform="translate(395.76 714.3)"><tspan x="0" y="0">Berichtskonsumenten</tspan></text>
  <g>
    <path d="m665.62,338.2v-15.75h2.08v13.89h7.76v1.86h-9.84Z"/>
    <path d="m685.5,334.52l2,.25c-.32,1.17-.9,2.07-1.75,2.72s-1.94.97-3.27.97c-1.67,0-2.99-.51-3.97-1.54-.98-1.03-1.47-2.47-1.47-4.32s.49-3.41,1.48-4.47c.99-1.06,2.27-1.59,3.85-1.59s2.77.52,3.74,1.56c.97,1.04,1.45,2.5,1.45,4.38,0,.11,0,.29-.01.52h-8.51c.07,1.25.43,2.21,1.06,2.88s1.43,1,2.38,1c.71,0,1.31-.19,1.82-.56.5-.37.9-.97,1.19-1.78Zm-6.35-3.13h6.37c-.09-.96-.33-1.68-.73-2.16-.62-.74-1.41-1.12-2.4-1.12-.89,0-1.63.3-2.24.89-.61.59-.94,1.39-1,2.38Z"/>
    <path d="m689.94,324.67v-2.22h1.93v2.22h-1.93Zm0,13.52v-11.41h1.93v11.41h-1.93Z"/>
    <path d="m694.04,334.79l1.91-.3c.11.77.41,1.35.9,1.76.49.41,1.18.61,2.06.61s1.55-.18,1.98-.54c.43-.36.64-.79.64-1.27,0-.44-.19-.78-.57-1.03-.26-.17-.92-.39-1.98-.66-1.42-.36-2.4-.67-2.95-.93-.55-.26-.96-.62-1.25-1.08-.28-.46-.42-.97-.42-1.53,0-.51.12-.98.35-1.41.23-.43.55-.79.95-1.08.3-.22.71-.41,1.23-.56.52-.15,1.08-.23,1.67-.23.9,0,1.68.13,2.36.39.68.26,1.18.61,1.5,1.05s.54,1.03.67,1.77l-1.89.26c-.09-.59-.33-1.05-.75-1.38-.41-.33-.99-.49-1.75-.49-.89,0-1.52.15-1.9.44-.38.29-.57.64-.57,1.03,0,.25.08.48.24.68.16.21.4.38.74.52.19.07.76.24,1.71.49,1.37.37,2.32.66,2.86.9.54.23.97.57,1.27,1.02.31.44.46,1,.46,1.65s-.19,1.25-.56,1.82c-.38.57-.92,1.01-1.63,1.32s-1.51.47-2.41.47c-1.48,0-2.61-.31-3.39-.92-.78-.62-1.27-1.53-1.49-2.74Z"/>
    <path d="m710.04,336.47l.28,1.71c-.54.11-1.03.17-1.46.17-.7,0-1.25-.11-1.63-.33s-.66-.51-.82-.88c-.16-.36-.24-1.12-.24-2.28v-6.56h-1.42v-1.5h1.42v-2.83l1.92-1.16v3.99h1.94v1.5h-1.94v6.67c0,.55.03.91.1,1.06.07.16.18.28.33.38.15.09.38.14.66.14.21,0,.5-.02.85-.08Z"/>
    <path d="m719.41,338.2v-1.68c-.89,1.29-2.09,1.93-3.62,1.93-.67,0-1.3-.13-1.88-.39-.58-.26-1.02-.58-1.3-.97-.28-.39-.48-.87-.6-1.43-.08-.38-.12-.98-.12-1.8v-7.07h1.93v6.33c0,1.01.04,1.69.12,2.04.12.51.38.91.77,1.2s.88.44,1.46.44,1.12-.15,1.63-.45c.51-.3.87-.7,1.08-1.21.21-.51.32-1.25.32-2.23v-6.11h1.93v11.41h-1.73Z"/>
    <path d="m724.17,338.2v-11.41h1.74v1.62c.84-1.25,2.05-1.88,3.63-1.88.69,0,1.32.12,1.9.37.58.25,1.01.57,1.29.97.29.4.49.88.6,1.43.07.36.11.98.11,1.88v7.01h-1.93v-6.94c0-.79-.08-1.38-.23-1.77-.15-.39-.42-.7-.8-.93-.38-.23-.83-.35-1.35-.35-.82,0-1.53.26-2.13.78-.6.52-.9,1.51-.9,2.98v6.23h-1.93Z"/>
    <path d="m736.05,339.14l1.88.28c.08.58.3,1,.66,1.27.48.36,1.13.54,1.97.54.9,0,1.59-.18,2.07-.54.49-.36.82-.86.99-1.5.1-.39.15-1.22.14-2.48-.84,1-1.9,1.49-3.16,1.49-1.57,0-2.78-.57-3.64-1.7-.86-1.13-1.29-2.49-1.29-4.07,0-1.09.2-2.09.59-3.01.39-.92.96-1.63,1.71-2.13.75-.5,1.63-.75,2.64-.75,1.35,0,2.46.54,3.33,1.63v-1.38h1.78v9.86c0,1.78-.18,3.03-.54,3.78-.36.74-.93,1.33-1.72,1.76-.78.43-1.75.64-2.89.64-1.36,0-2.46-.31-3.3-.92s-1.24-1.53-1.21-2.77Zm1.6-6.85c0,1.5.3,2.59.89,3.28s1.34,1.03,2.23,1.03,1.63-.34,2.23-1.03c.6-.68.9-1.76.9-3.22s-.31-2.45-.93-3.16c-.62-.71-1.37-1.06-2.24-1.06s-1.59.35-2.19,1.05-.9,1.73-.9,3.11Z"/>
    <path d="m747.86,334.79l1.91-.3c.11.77.41,1.35.9,1.76.49.41,1.18.61,2.06.61s1.55-.18,1.98-.54c.43-.36.64-.79.64-1.27,0-.44-.19-.78-.57-1.03-.26-.17-.92-.39-1.98-.66-1.42-.36-2.4-.67-2.95-.93-.55-.26-.96-.62-1.25-1.08-.28-.46-.42-.97-.42-1.53,0-.51.12-.98.35-1.41.23-.43.55-.79.95-1.08.3-.22.71-.41,1.23-.56.52-.15,1.08-.23,1.67-.23.9,0,1.68.13,2.36.39.68.26,1.18.61,1.5,1.05s.54,1.03.67,1.77l-1.89.26c-.09-.59-.33-1.05-.75-1.38-.41-.33-.99-.49-1.75-.49-.89,0-1.52.15-1.9.44-.38.29-.57.64-.57,1.03,0,.25.08.48.24.68.16.21.4.38.74.52.19.07.76.24,1.71.49,1.37.37,2.32.66,2.86.9.54.23.97.57,1.27,1.02.31.44.46,1,.46,1.65s-.19,1.25-.56,1.82c-.38.57-.92,1.01-1.63,1.32s-1.51.47-2.41.47c-1.48,0-2.61-.31-3.39-.92-.78-.62-1.27-1.53-1.49-2.74Z"/>
    <path d="m760.1,338.2v-9.9h-1.71v-1.5h1.71v-1.21c0-.77.07-1.34.2-1.71.19-.5.51-.91.98-1.22.47-.31,1.13-.47,1.97-.47.54,0,1.15.06,1.8.19l-.29,1.69c-.4-.07-.78-.11-1.14-.11-.59,0-1,.13-1.25.38-.24.25-.37.72-.37,1.41v1.05h2.22v1.5h-2.22v9.9h-1.92Z"/>
    <path d="m773.19,336.79c-.72.61-1.41,1.04-2.07,1.29-.66.25-1.37.38-2.13.38-1.25,0-2.22-.31-2.89-.92s-1.01-1.39-1.01-2.35c0-.56.13-1.07.38-1.53.25-.46.59-.83,1-1.11.41-.28.88-.49,1.39-.63.38-.1.95-.2,1.72-.29,1.56-.19,2.71-.41,3.45-.67,0-.26.01-.43.01-.5,0-.79-.18-1.34-.55-1.67-.49-.44-1.23-.66-2.2-.66-.91,0-1.58.16-2.01.48-.43.32-.75.88-.96,1.69l-1.89-.26c.17-.81.46-1.46.85-1.96.39-.5.96-.88,1.71-1.15s1.61-.4,2.59-.4,1.77.11,2.37.34c.61.23,1.06.52,1.34.86.29.35.49.79.6,1.32.06.33.1.92.1,1.78v2.58c0,1.8.04,2.93.12,3.41.08.48.25.93.49,1.37h-2.02c-.2-.4-.33-.87-.39-1.41Zm-.16-4.32c-.7.29-1.75.53-3.16.73-.79.11-1.36.24-1.69.39-.33.14-.58.35-.76.63-.18.28-.27.58-.27.92,0,.52.2.95.59,1.29.39.34.96.52,1.71.52s1.41-.16,1.99-.49c.58-.33,1.01-.77,1.28-1.34.21-.44.31-1.08.31-1.93v-.71Zm-5.69-7.92v-2.2h2.02v2.2h-2.02Zm4.01,0v-2.2h2.02v2.2h-2.02Z"/>
    <path d="m777.98,338.2v-15.75h1.93v5.65c.9-1.05,2.04-1.57,3.42-1.57.84,0,1.58.17,2.2.5s1.07.79,1.34,1.38c.27.59.4,1.44.4,2.56v7.23h-1.93v-7.23c0-.97-.21-1.67-.63-2.11-.42-.44-1.01-.66-1.78-.66-.57,0-1.11.15-1.62.45-.5.3-.86.7-1.08,1.21-.21.51-.32,1.21-.32,2.11v6.24h-1.93Z"/>
    <path d="m790.23,324.67v-2.22h1.93v2.22h-1.93Zm0,13.52v-11.41h1.93v11.41h-1.93Z"/>
    <path d="m794.75,339.14l1.88.28c.08.58.3,1,.66,1.27.48.36,1.13.54,1.97.54.9,0,1.59-.18,2.07-.54.49-.36.82-.86.99-1.5.1-.39.15-1.22.14-2.48-.84,1-1.9,1.49-3.16,1.49-1.57,0-2.78-.57-3.64-1.7-.86-1.13-1.29-2.49-1.29-4.07,0-1.09.2-2.09.59-3.01.39-.92.96-1.63,1.71-2.13.75-.5,1.63-.75,2.64-.75,1.35,0,2.46.54,3.33,1.63v-1.38h1.78v9.86c0,1.78-.18,3.03-.54,3.78-.36.74-.93,1.33-1.72,1.76-.78.43-1.75.64-2.89.64-1.36,0-2.46-.31-3.3-.92s-1.24-1.53-1.21-2.77Zm1.6-6.85c0,1.5.3,2.59.89,3.28s1.34,1.03,2.23,1.03,1.63-.34,2.23-1.03c.6-.68.9-1.76.9-3.22s-.31-2.45-.93-3.16c-.62-.71-1.37-1.06-2.24-1.06s-1.59.35-2.19,1.05-.9,1.73-.9,3.11Z"/>
    <path d="m815.15,334.52l2,.25c-.32,1.17-.9,2.07-1.75,2.72s-1.94.97-3.27.97c-1.67,0-2.99-.51-3.97-1.54-.98-1.03-1.47-2.47-1.47-4.32s.49-3.41,1.48-4.47c.99-1.06,2.27-1.59,3.85-1.59s2.77.52,3.74,1.56c.97,1.04,1.45,2.5,1.45,4.38,0,.11,0,.29-.01.52h-8.51c.07,1.25.43,2.21,1.06,2.88s1.43,1,2.38,1c.71,0,1.31-.19,1.82-.56.5-.37.9-.97,1.19-1.78Zm-6.35-3.13h6.37c-.09-.96-.33-1.68-.73-2.16-.62-.74-1.41-1.12-2.4-1.12-.89,0-1.63.3-2.24.89-.61.59-.94,1.39-1,2.38Z"/>
    <path d="m825.85,338.2v-15.75h5.91c1.2,0,2.17.16,2.89.48.73.32,1.3.81,1.71,1.47.41.66.62,1.36.62,2.08,0,.67-.18,1.31-.55,1.9-.37.59-.92,1.07-1.65,1.44.95.28,1.68.76,2.2,1.43.51.67.77,1.47.77,2.38,0,.74-.16,1.42-.47,2.06-.31.63-.7,1.12-1.15,1.47s-1.03.6-1.72.78c-.69.18-1.54.26-2.54.26h-6Zm2.08-9.13h3.41c.92,0,1.59-.06,1.99-.18.53-.16.93-.42,1.2-.78.27-.37.4-.82.4-1.38,0-.52-.12-.98-.38-1.38s-.61-.67-1.07-.82c-.47-.15-1.26-.22-2.4-.22h-3.15v4.76Zm0,7.27h3.92c.67,0,1.15-.02,1.42-.08.48-.09.88-.23,1.2-.43.32-.2.59-.49.79-.88.21-.38.31-.83.31-1.33,0-.59-.15-1.1-.45-1.53-.3-.43-.72-.74-1.25-.91-.53-.18-1.3-.26-2.3-.26h-3.64v5.41Z"/>
    <path d="m848.17,334.52l2,.25c-.32,1.17-.9,2.07-1.75,2.72s-1.94.97-3.27.97c-1.67,0-2.99-.51-3.97-1.54-.98-1.03-1.47-2.47-1.47-4.32s.49-3.41,1.48-4.47c.99-1.06,2.27-1.59,3.85-1.59s2.77.52,3.74,1.56c.97,1.04,1.45,2.5,1.45,4.38,0,.11,0,.29-.01.52h-8.51c.07,1.25.43,2.21,1.06,2.88s1.43,1,2.38,1c.71,0,1.31-.19,1.82-.56.5-.37.9-.97,1.19-1.78Zm-6.35-3.13h6.37c-.09-.96-.33-1.68-.73-2.16-.62-.74-1.41-1.12-2.4-1.12-.89,0-1.63.3-2.24.89-.61.59-.94,1.39-1,2.38Z"/>
    <path d="m852.58,338.2v-11.41h1.74v1.73c.44-.81.85-1.34,1.23-1.6.38-.26.79-.39,1.24-.39.65,0,1.31.21,1.99.62l-.67,1.79c-.47-.28-.95-.42-1.42-.42-.42,0-.8.13-1.14.38-.34.25-.58.61-.72,1.06-.21.69-.32,1.44-.32,2.26v5.97h-1.93Z"/>
    <path d="m859.94,324.67v-2.22h1.93v2.22h-1.93Zm0,13.52v-11.41h1.93v11.41h-1.93Z"/>
    <path d="m872.26,334.02l1.9.25c-.21,1.31-.74,2.34-1.59,3.08-.86.74-1.91,1.11-3.15,1.11-1.56,0-2.82-.51-3.76-1.53-.95-1.02-1.42-2.48-1.42-4.39,0-1.23.2-2.31.61-3.23s1.03-1.62,1.86-2.08c.83-.46,1.74-.69,2.72-.69,1.24,0,2.25.31,3.04.94.79.63,1.29,1.52,1.51,2.67l-1.88.29c-.18-.77-.5-1.34-.95-1.73-.46-.39-1-.58-1.65-.58-.97,0-1.77.35-2.37,1.05s-.91,1.8-.91,3.31.29,2.65.88,3.34c.59.69,1.35,1.04,2.3,1.04.76,0,1.39-.23,1.9-.7.51-.47.83-1.18.97-2.15Z"/>
    <path d="m875.81,338.2v-15.75h1.93v5.65c.9-1.05,2.04-1.57,3.42-1.57.84,0,1.58.17,2.2.5s1.07.79,1.34,1.38c.27.59.4,1.44.4,2.56v7.23h-1.93v-7.23c0-.97-.21-1.67-.63-2.11-.42-.44-1.01-.66-1.78-.66-.57,0-1.11.15-1.62.45-.5.3-.86.7-1.08,1.21-.21.51-.32,1.21-.32,2.11v6.24h-1.93Z"/>
    <path d="m892.27,336.47l.28,1.71c-.54.11-1.03.17-1.46.17-.7,0-1.25-.11-1.63-.33s-.66-.51-.82-.88c-.16-.36-.24-1.12-.24-2.28v-6.56h-1.42v-1.5h1.42v-2.83l1.92-1.16v3.99h1.94v1.5h-1.94v6.67c0,.55.03.91.1,1.06.07.16.18.28.33.38.15.09.38.14.66.14.21,0,.5-.02.85-.08Z"/>
    <path d="m901.97,334.52l2,.25c-.32,1.17-.9,2.07-1.75,2.72s-1.94.97-3.27.97c-1.67,0-2.99-.51-3.97-1.54-.98-1.03-1.47-2.47-1.47-4.32s.49-3.41,1.48-4.47c.99-1.06,2.27-1.59,3.85-1.59s2.77.52,3.74,1.56c.97,1.04,1.45,2.5,1.45,4.38,0,.11,0,.29-.01.52h-8.51c.07,1.25.43,2.21,1.06,2.88s1.43,1,2.38,1c.71,0,1.31-.19,1.82-.56.5-.37.9-.97,1.19-1.78Zm-6.35-3.13h6.37c-.09-.96-.33-1.68-.73-2.16-.62-.74-1.41-1.12-2.4-1.12-.89,0-1.63.3-2.24.89-.61.59-.94,1.39-1,2.38Z"/>
    <path d="m906.38,338.2v-11.41h1.74v1.73c.44-.81.85-1.34,1.23-1.6.38-.26.79-.39,1.24-.39.65,0,1.31.21,1.99.62l-.67,1.79c-.47-.28-.95-.42-1.42-.42-.42,0-.8.13-1.14.38-.34.25-.58.61-.72,1.06-.21.69-.32,1.44-.32,2.26v5.97h-1.93Z"/>
    <path d="m912.95,334.79l1.91-.3c.11.77.41,1.35.9,1.76.49.41,1.18.61,2.06.61s1.55-.18,1.98-.54c.43-.36.64-.79.64-1.27,0-.44-.19-.78-.57-1.03-.26-.17-.92-.39-1.98-.66-1.42-.36-2.4-.67-2.95-.93-.55-.26-.96-.62-1.25-1.08-.28-.46-.42-.97-.42-1.53,0-.51.12-.98.35-1.41.23-.43.55-.79.95-1.08.3-.22.71-.41,1.23-.56.52-.15,1.08-.23,1.67-.23.9,0,1.68.13,2.36.39.68.26,1.18.61,1.5,1.05s.54,1.03.67,1.77l-1.89.26c-.09-.59-.33-1.05-.75-1.38-.41-.33-.99-.49-1.75-.49-.89,0-1.52.15-1.9.44-.38.29-.57.64-.57,1.03,0,.25.08.48.24.68.16.21.4.38.74.52.19.07.76.24,1.71.49,1.37.37,2.32.66,2.86.9.54.23.97.57,1.27,1.02.31.44.46,1,.46,1.65s-.19,1.25-.56,1.82c-.38.57-.92,1.01-1.63,1.32s-1.51.47-2.41.47c-1.48,0-2.61-.31-3.39-.92-.78-.62-1.27-1.53-1.49-2.74Z"/>
    <path d="m928.94,336.47l.28,1.71c-.54.11-1.03.17-1.46.17-.7,0-1.25-.11-1.63-.33s-.66-.51-.82-.88c-.16-.36-.24-1.12-.24-2.28v-6.56h-1.42v-1.5h1.42v-2.83l1.92-1.16v3.99h1.94v1.5h-1.94v6.67c0,.55.03.91.1,1.06.07.16.18.28.33.38.15.09.38.14.66.14.21,0,.5-.02.85-.08Z"/>
    <path d="m938.64,334.52l2,.25c-.32,1.17-.9,2.07-1.75,2.72s-1.94.97-3.27.97c-1.67,0-2.99-.51-3.97-1.54-.98-1.03-1.47-2.47-1.47-4.32s.49-3.41,1.48-4.47c.99-1.06,2.27-1.59,3.85-1.59s2.77.52,3.74,1.56c.97,1.04,1.45,2.5,1.45,4.38,0,.11,0,.29-.01.52h-8.51c.07,1.25.43,2.21,1.06,2.88s1.43,1,2.38,1c.71,0,1.31-.19,1.82-.56.5-.37.9-.97,1.19-1.78Zm-6.35-3.13h6.37c-.09-.96-.33-1.68-.73-2.16-.62-.74-1.41-1.12-2.4-1.12-.89,0-1.63.3-2.24.89-.61.59-.94,1.39-1,2.38Z"/>
    <path d="m943.03,338.2v-15.75h1.93v15.75h-1.93Z"/>
    <path d="m947.92,338.2v-15.75h1.93v15.75h-1.93Z"/>
    <path d="m960.32,338.2v-1.68c-.89,1.29-2.09,1.93-3.62,1.93-.67,0-1.3-.13-1.88-.39-.58-.26-1.02-.58-1.3-.97-.28-.39-.48-.87-.6-1.43-.08-.38-.12-.98-.12-1.8v-7.07h1.93v6.33c0,1.01.04,1.69.12,2.04.12.51.38.91.77,1.2s.88.44,1.46.44,1.12-.15,1.63-.45c.51-.3.87-.7,1.08-1.21.21-.51.32-1.25.32-2.23v-6.11h1.93v11.41h-1.73Z"/>
    <path d="m965.08,338.2v-11.41h1.74v1.62c.84-1.25,2.05-1.88,3.63-1.88.69,0,1.32.12,1.9.37.58.25,1.01.57,1.29.97.29.4.49.88.6,1.43.07.36.11.98.11,1.88v7.01h-1.93v-6.94c0-.79-.08-1.38-.23-1.77-.15-.39-.42-.7-.8-.93-.38-.23-.83-.35-1.35-.35-.82,0-1.53.26-2.13.78-.6.52-.9,1.51-.9,2.98v6.23h-1.93Z"/>
    <path d="m976.96,339.14l1.88.28c.08.58.3,1,.66,1.27.48.36,1.13.54,1.97.54.9,0,1.59-.18,2.07-.54.49-.36.82-.86.99-1.5.1-.39.15-1.22.14-2.48-.84,1-1.9,1.49-3.16,1.49-1.57,0-2.78-.57-3.64-1.7-.86-1.13-1.29-2.49-1.29-4.07,0-1.09.2-2.09.59-3.01.39-.92.96-1.63,1.71-2.13.75-.5,1.63-.75,2.64-.75,1.35,0,2.46.54,3.33,1.63v-1.38h1.78v9.86c0,1.78-.18,3.03-.54,3.78-.36.74-.93,1.33-1.72,1.76-.78.43-1.75.64-2.89.64-1.36,0-2.46-.31-3.3-.92s-1.24-1.53-1.21-2.77Zm1.6-6.85c0,1.5.3,2.59.89,3.28s1.34,1.03,2.23,1.03,1.63-.34,2.23-1.03c.6-.68.9-1.76.9-3.22s-.31-2.45-.93-3.16c-.62-.71-1.37-1.06-2.24-1.06s-1.59.35-2.19,1.05-.9,1.73-.9,3.11Z"/>
    <path d="m988.8,333.47v-1.94h5.94v1.94h-5.94Z"/>
    <path d="m664.69,361.19l1.91-.3c.11.77.41,1.35.9,1.76.49.41,1.18.61,2.06.61s1.55-.18,1.98-.54c.43-.36.64-.79.64-1.27,0-.44-.19-.78-.57-1.03-.26-.17-.92-.39-1.98-.66-1.42-.36-2.4-.67-2.95-.93-.55-.26-.96-.62-1.25-1.08-.28-.46-.42-.97-.42-1.53,0-.51.12-.98.35-1.41.23-.43.55-.79.95-1.08.3-.22.71-.41,1.23-.56.52-.15,1.08-.23,1.67-.23.9,0,1.68.13,2.36.39.68.26,1.18.61,1.5,1.05s.54,1.03.67,1.77l-1.89.26c-.09-.59-.33-1.05-.75-1.38-.41-.33-.99-.49-1.75-.49-.89,0-1.52.15-1.9.44-.38.29-.57.64-.57,1.03,0,.25.08.48.24.68.16.21.4.38.74.52.19.07.76.24,1.71.49,1.37.37,2.32.66,2.86.9.54.23.97.57,1.27,1.02.31.44.46,1,.46,1.65s-.19,1.25-.56,1.82c-.38.57-.92,1.01-1.63,1.32s-1.51.47-2.41.47c-1.48,0-2.61-.31-3.39-.92-.78-.62-1.27-1.53-1.49-2.74Z"/>
    <path d="m678.57,364.6l-3.49-11.41h2l1.82,6.58.68,2.45c.03-.12.23-.91.59-2.35l1.82-6.68h1.99l1.71,6.62.57,2.18.66-2.2,1.96-6.6h1.88l-3.57,11.41h-2.01l-1.82-6.83-.44-1.94-2.31,8.78h-2.02Z"/>
    <path d="m700.16,360.92l2,.25c-.32,1.17-.9,2.07-1.75,2.72s-1.94.97-3.27.97c-1.67,0-2.99-.51-3.97-1.54-.98-1.03-1.47-2.47-1.47-4.32s.49-3.41,1.48-4.47c.99-1.06,2.27-1.59,3.85-1.59s2.77.52,3.74,1.56c.97,1.04,1.45,2.5,1.45,4.38,0,.11,0,.29-.01.52h-8.51c.07,1.25.43,2.21,1.06,2.88s1.43,1,2.38,1c.71,0,1.31-.19,1.82-.56.5-.37.9-.97,1.19-1.78Zm-6.35-3.13h6.37c-.09-.96-.33-1.68-.73-2.16-.62-.74-1.41-1.12-2.4-1.12-.89,0-1.63.3-2.24.89-.61.59-.94,1.39-1,2.38Z"/>
    <path d="m704.56,364.6v-11.41h1.74v1.73c.44-.81.85-1.34,1.23-1.6.38-.26.79-.39,1.24-.39.65,0,1.31.21,1.99.62l-.67,1.79c-.47-.28-.95-.42-1.42-.42-.42,0-.8.13-1.14.38-.34.25-.58.61-.72,1.06-.21.69-.32,1.44-.32,2.26v5.97h-1.93Z"/>
    <path d="m711.92,364.6v-15.75h1.93v8.98l4.58-4.64h2.5l-4.36,4.23,4.8,7.18h-2.38l-3.77-5.83-1.36,1.31v4.52h-1.93Z"/>
    <path d="m721.89,364.6v-1.57l7.26-8.34c-.82.04-1.55.06-2.18.06h-4.65v-1.57h9.32v1.28l-6.18,7.24-1.19,1.32c.87-.06,1.68-.1,2.44-.1h5.27v1.67h-10.1Z"/>
    <path d="m741.72,360.92l2,.25c-.32,1.17-.9,2.07-1.75,2.72s-1.94.97-3.27.97c-1.67,0-2.99-.51-3.97-1.54-.98-1.03-1.47-2.47-1.47-4.32s.49-3.41,1.48-4.47c.99-1.06,2.27-1.59,3.85-1.59s2.77.52,3.74,1.56c.97,1.04,1.45,2.5,1.45,4.38,0,.11,0,.29-.01.52h-8.51c.07,1.25.43,2.21,1.06,2.88s1.43,1,2.38,1c.71,0,1.31-.19,1.82-.56.5-.37.9-.97,1.19-1.78Zm-6.35-3.13h6.37c-.09-.96-.33-1.68-.73-2.16-.62-.74-1.41-1.12-2.4-1.12-.89,0-1.63.3-2.24.89-.61.59-.94,1.39-1,2.38Z"/>
    <path d="m753.62,364.6v-1.68c-.89,1.29-2.09,1.93-3.62,1.93-.67,0-1.3-.13-1.88-.39-.58-.26-1.02-.58-1.3-.97-.28-.39-.48-.87-.6-1.43-.08-.38-.12-.98-.12-1.8v-7.07h1.93v6.33c0,1.01.04,1.69.12,2.04.12.51.38.91.77,1.2s.88.44,1.46.44,1.12-.15,1.63-.45c.51-.3.87-.7,1.08-1.21.21-.51.32-1.25.32-2.23v-6.11h1.93v11.41h-1.73Z"/>
    <path d="m758.03,365.54l1.88.28c.08.58.3,1,.66,1.27.48.36,1.13.54,1.97.54.9,0,1.59-.18,2.07-.54.49-.36.82-.86.99-1.5.1-.39.15-1.22.14-2.48-.84,1-1.9,1.49-3.16,1.49-1.57,0-2.78-.57-3.64-1.7-.86-1.13-1.29-2.49-1.29-4.07,0-1.09.2-2.09.59-3.01.39-.92.96-1.63,1.71-2.13.75-.5,1.63-.75,2.64-.75,1.35,0,2.46.54,3.33,1.63v-1.38h1.78v9.86c0,1.78-.18,3.03-.54,3.78-.36.74-.93,1.33-1.72,1.76-.78.43-1.75.64-2.89.64-1.36,0-2.46-.31-3.3-.92s-1.24-1.53-1.21-2.77Zm1.6-6.85c0,1.5.3,2.59.89,3.28s1.34,1.03,2.23,1.03,1.63-.34,2.23-1.03c.6-.68.9-1.76.9-3.22s-.31-2.45-.93-3.16c-.62-.71-1.37-1.06-2.24-1.06s-1.59.35-2.19,1.05-.9,1.73-.9,3.11Z"/>
    <path d="m778.42,360.92l2,.25c-.32,1.17-.9,2.07-1.75,2.72s-1.94.97-3.27.97c-1.67,0-2.99-.51-3.97-1.54-.98-1.03-1.47-2.47-1.47-4.32s.49-3.41,1.48-4.47c.99-1.06,2.27-1.59,3.85-1.59s2.77.52,3.74,1.56c.97,1.04,1.45,2.5,1.45,4.38,0,.11,0,.29-.01.52h-8.51c.07,1.25.43,2.21,1.06,2.88s1.43,1,2.38,1c.71,0,1.31-.19,1.82-.56.5-.37.9-.97,1.19-1.78Zm-6.35-3.13h6.37c-.09-.96-.33-1.68-.73-2.16-.62-.74-1.41-1.12-2.4-1.12-.89,0-1.63.3-2.24.89-.61.59-.94,1.39-1,2.38Z"/>
    <path d="m676.04,390.25h2.08v9.1c0,1.58-.18,2.84-.54,3.77-.36.93-1,1.69-1.94,2.27-.93.58-2.16.88-3.68.88s-2.68-.25-3.62-.76-1.61-1.24-2.01-2.21c-.4-.96-.6-2.28-.6-3.95v-9.1h2.08v9.09c0,1.37.13,2.38.38,3.02.25.65.69,1.15,1.31,1.5.62.35,1.38.53,2.27.53,1.53,0,2.62-.35,3.28-1.04.65-.69.98-2.03.98-4.01v-9.09Z"/>
    <path d="m681.35,406v-11.41h1.73v1.6c.36-.56.83-1.01,1.43-1.35.59-.34,1.27-.51,2.03-.51.84,0,1.54.18,2.08.53.54.35.92.84,1.14,1.47.9-1.33,2.08-2,3.52-2,1.13,0,2,.31,2.61.94.61.63.91,1.59.91,2.9v7.83h-1.92v-7.19c0-.77-.06-1.33-.19-1.67-.12-.34-.35-.61-.68-.82-.33-.21-.72-.31-1.16-.31-.8,0-1.47.27-2,.8-.53.53-.79,1.39-.79,2.56v6.63h-1.93v-7.41c0-.86-.16-1.5-.47-1.93s-.83-.64-1.55-.64c-.54,0-1.05.14-1.51.43-.46.29-.8.71-1,1.26-.21.55-.31,1.35-.31,2.38v5.92h-1.93Z"/>
    <path d="m700.14,406v-9.9h-1.71v-1.5h1.71v-1.21c0-.77.07-1.34.2-1.71.19-.5.51-.91.98-1.22.47-.31,1.13-.47,1.97-.47.54,0,1.15.06,1.8.19l-.29,1.69c-.4-.07-.78-.11-1.14-.11-.59,0-1,.13-1.25.38-.24.25-.37.72-.37,1.41v1.05h2.22v1.5h-2.22v9.9h-1.92Z"/>
    <path d="m713.23,404.59c-.72.61-1.41,1.04-2.07,1.29-.66.25-1.37.38-2.13.38-1.25,0-2.22-.31-2.89-.92s-1.01-1.39-1.01-2.35c0-.56.13-1.07.38-1.53.25-.46.59-.83,1-1.11.41-.28.88-.49,1.39-.63.38-.1.95-.2,1.72-.29,1.56-.19,2.71-.41,3.45-.67,0-.26.01-.43.01-.5,0-.79-.18-1.34-.55-1.67-.49-.44-1.23-.66-2.2-.66-.91,0-1.58.16-2.01.48-.43.32-.75.88-.96,1.69l-1.89-.26c.17-.81.46-1.46.85-1.96.39-.5.96-.88,1.71-1.15s1.61-.4,2.59-.4,1.77.11,2.37.34c.61.23,1.06.52,1.34.86.29.35.49.79.6,1.32.06.33.1.92.1,1.78v2.58c0,1.8.04,2.93.12,3.41.08.48.25.93.49,1.37h-2.02c-.2-.4-.33-.87-.39-1.41Zm-.16-4.32c-.7.29-1.75.53-3.16.73-.79.11-1.36.24-1.69.39-.33.14-.58.35-.76.63-.18.28-.27.58-.27.92,0,.52.2.95.59,1.29.39.34.96.52,1.71.52s1.41-.16,1.99-.49c.58-.33,1.01-.77,1.28-1.34.21-.44.31-1.08.31-1.93v-.71Z"/>
    <path d="m718.02,406v-11.41h1.74v1.62c.84-1.25,2.05-1.88,3.63-1.88.69,0,1.32.12,1.9.37.58.25,1.01.57,1.29.97.29.4.49.88.6,1.43.07.36.11.98.11,1.88v7.01h-1.93v-6.94c0-.79-.08-1.38-.23-1.77-.15-.39-.42-.7-.8-.93-.38-.23-.83-.35-1.35-.35-.82,0-1.53.26-2.13.78-.6.52-.9,1.51-.9,2.98v6.23h-1.93Z"/>
    <path d="m729.9,406.94l1.88.28c.08.58.3,1,.66,1.27.48.36,1.13.54,1.97.54.9,0,1.59-.18,2.07-.54.49-.36.82-.86.99-1.5.1-.39.15-1.22.14-2.48-.84,1-1.9,1.49-3.16,1.49-1.57,0-2.78-.57-3.64-1.7-.86-1.13-1.29-2.49-1.29-4.07,0-1.09.2-2.09.59-3.01.39-.92.96-1.63,1.71-2.13.75-.5,1.63-.75,2.64-.75,1.35,0,2.46.54,3.33,1.63v-1.38h1.78v9.86c0,1.78-.18,3.03-.54,3.78-.36.74-.93,1.33-1.72,1.76-.78.43-1.75.64-2.89.64-1.36,0-2.46-.31-3.3-.92s-1.24-1.53-1.21-2.77Zm1.6-6.85c0,1.5.3,2.59.89,3.28s1.34,1.03,2.23,1.03,1.63-.34,2.23-1.03c.6-.68.9-1.76.9-3.22s-.31-2.45-.93-3.16c-.62-.71-1.37-1.06-2.24-1.06s-1.59.35-2.19,1.05-.9,1.73-.9,3.11Z"/>
    <path d="m742.47,406v-11.41h1.74v1.73c.44-.81.85-1.34,1.23-1.6.38-.26.79-.39,1.24-.39.65,0,1.31.21,1.99.62l-.67,1.79c-.47-.28-.95-.42-1.42-.42-.42,0-.8.13-1.14.38-.34.25-.58.61-.72,1.06-.21.69-.32,1.44-.32,2.26v5.97h-1.93Z"/>
    <path d="m757.63,402.32l2,.25c-.32,1.17-.9,2.07-1.75,2.72s-1.94.97-3.27.97c-1.67,0-2.99-.51-3.97-1.54-.98-1.03-1.47-2.47-1.47-4.32s.49-3.41,1.48-4.47c.99-1.06,2.27-1.59,3.85-1.59s2.77.52,3.74,1.56c.97,1.04,1.45,2.5,1.45,4.38,0,.11,0,.29-.01.52h-8.51c.07,1.25.43,2.21,1.06,2.88s1.43,1,2.38,1c.71,0,1.31-.19,1.82-.56.5-.37.9-.97,1.19-1.78Zm-6.35-3.13h6.37c-.09-.96-.33-1.68-.73-2.16-.62-.74-1.41-1.12-2.4-1.12-.89,0-1.63.3-2.24.89-.61.59-.94,1.39-1,2.38Z"/>
    <path d="m762.06,392.47v-2.22h1.93v2.22h-1.93Zm0,13.52v-11.41h1.93v11.41h-1.93Z"/>
    <path d="m774.39,401.82l1.9.25c-.21,1.31-.74,2.34-1.59,3.08-.86.74-1.91,1.11-3.15,1.11-1.56,0-2.82-.51-3.76-1.53-.95-1.02-1.42-2.48-1.42-4.39,0-1.23.2-2.31.61-3.23s1.03-1.62,1.86-2.08c.83-.46,1.74-.69,2.72-.69,1.24,0,2.25.31,3.04.94.79.63,1.29,1.52,1.51,2.67l-1.88.29c-.18-.77-.5-1.34-.95-1.73-.46-.39-1-.58-1.65-.58-.97,0-1.77.35-2.37,1.05s-.91,1.8-.91,3.31.29,2.65.88,3.34c.59.69,1.35,1.04,2.3,1.04.76,0,1.39-.23,1.9-.7.51-.47.83-1.18.97-2.15Z"/>
    <path d="m777.94,406v-15.75h1.93v5.65c.9-1.05,2.04-1.57,3.42-1.57.84,0,1.58.17,2.2.5s1.07.79,1.34,1.38c.27.59.4,1.44.4,2.56v7.23h-1.93v-7.23c0-.97-.21-1.67-.63-2.11-.42-.44-1.01-.66-1.78-.66-.57,0-1.11.15-1.62.45-.5.3-.86.7-1.08,1.21-.21.51-.32,1.21-.32,2.11v6.24h-1.93Z"/>
    <path d="m797.99,402.32l2,.25c-.32,1.17-.9,2.07-1.75,2.72s-1.94.97-3.27.97c-1.67,0-2.99-.51-3.97-1.54-.98-1.03-1.47-2.47-1.47-4.32s.49-3.41,1.48-4.47c.99-1.06,2.27-1.59,3.85-1.59s2.77.52,3.74,1.56c.97,1.04,1.45,2.5,1.45,4.38,0,.11,0,.29-.01.52h-8.51c.07,1.25.43,2.21,1.06,2.88s1.43,1,2.38,1c.71,0,1.31-.19,1.82-.56.5-.37.9-.97,1.19-1.78Zm-6.35-3.13h6.37c-.09-.96-.33-1.68-.73-2.16-.62-.74-1.41-1.12-2.4-1.12-.89,0-1.63.3-2.24.89-.61.59-.94,1.39-1,2.38Z"/>
    <path d="m808.77,406v-15.75h5.42c1.22,0,2.16.08,2.8.23.9.21,1.67.58,2.31,1.13.83.7,1.45,1.6,1.86,2.69.41,1.09.62,2.34.62,3.74,0,1.2-.14,2.26-.42,3.18s-.64,1.69-1.07,2.29c-.44.61-.92,1.08-1.43,1.43-.52.35-1.15.61-1.88.79-.73.18-1.58.27-2.53.27h-5.68Zm2.08-1.86h3.36c1.04,0,1.85-.1,2.44-.29.59-.19,1.06-.47,1.41-.82.49-.49.88-1.16,1.15-1.99.28-.83.41-1.85.41-3.03,0-1.65-.27-2.91-.81-3.8-.54-.88-1.2-1.48-1.97-1.78-.56-.21-1.46-.32-2.7-.32h-3.31v12.03Z"/>
    <path d="m831.86,404.59c-.72.61-1.41,1.04-2.07,1.29-.66.25-1.37.38-2.13.38-1.25,0-2.22-.31-2.89-.92s-1.01-1.39-1.01-2.35c0-.56.13-1.07.38-1.53.25-.46.59-.83,1-1.11.41-.28.88-.49,1.39-.63.38-.1.95-.2,1.72-.29,1.56-.19,2.71-.41,3.45-.67,0-.26.01-.43.01-.5,0-.79-.18-1.34-.55-1.67-.49-.44-1.23-.66-2.2-.66-.91,0-1.58.16-2.01.48-.43.32-.75.88-.96,1.69l-1.89-.26c.17-.81.46-1.46.85-1.96.39-.5.96-.88,1.71-1.15s1.61-.4,2.59-.4,1.77.11,2.37.34c.61.23,1.06.52,1.34.86.29.35.49.79.6,1.32.06.33.1.92.1,1.78v2.58c0,1.8.04,2.93.12,3.41.08.48.25.93.49,1.37h-2.02c-.2-.4-.33-.87-.39-1.41Zm-.16-4.32c-.7.29-1.75.53-3.16.73-.79.11-1.36.24-1.69.39-.33.14-.58.35-.76.63-.18.28-.27.58-.27.92,0,.52.2.95.59,1.29.39.34.96.52,1.71.52s1.41-.16,1.99-.49c.58-.33,1.01-.77,1.28-1.34.21-.44.31-1.08.31-1.93v-.71Z"/>
    <path d="m840.87,404.27l.28,1.71c-.54.11-1.03.17-1.46.17-.7,0-1.25-.11-1.63-.33s-.66-.51-.82-.88c-.16-.36-.24-1.12-.24-2.28v-6.56h-1.42v-1.5h1.42v-2.83l1.92-1.16v3.99h1.94v1.5h-1.94v6.67c0,.55.03.91.1,1.06.07.16.18.28.33.38.15.09.38.14.66.14.21,0,.5-.02.85-.08Z"/>
    <path d="m850.57,402.32l2,.25c-.32,1.17-.9,2.07-1.75,2.72s-1.94.97-3.27.97c-1.67,0-2.99-.51-3.97-1.54-.98-1.03-1.47-2.47-1.47-4.32s.49-3.41,1.48-4.47c.99-1.06,2.27-1.59,3.85-1.59s2.77.52,3.74,1.56c.97,1.04,1.45,2.5,1.45,4.38,0,.11,0,.29-.01.52h-8.51c.07,1.25.43,2.21,1.06,2.88s1.43,1,2.38,1c.71,0,1.31-.19,1.82-.56.5-.37.9-.97,1.19-1.78Zm-6.35-3.13h6.37c-.09-.96-.33-1.68-.73-2.16-.62-.74-1.41-1.12-2.4-1.12-.89,0-1.63.3-2.24.89-.61.59-.94,1.39-1,2.38Z"/>
    <path d="m855,406v-11.41h1.74v1.62c.84-1.25,2.05-1.88,3.63-1.88.69,0,1.32.12,1.9.37.58.25,1.01.57,1.29.97.29.4.49.88.6,1.43.07.36.11.98.11,1.88v7.01h-1.93v-6.94c0-.79-.08-1.38-.23-1.77-.15-.39-.42-.7-.8-.93-.38-.23-.83-.35-1.35-.35-.82,0-1.53.26-2.13.78-.6.52-.9,1.51-.9,2.98v6.23h-1.93Z"/>
    <path d="m866.21,406v-1.57l7.26-8.34c-.82.04-1.55.06-2.18.06h-4.65v-1.57h9.32v1.28l-6.18,7.24-1.19,1.32c.87-.06,1.68-.1,2.44-.1h5.27v1.67h-10.1Z"/>
    <path d="m885.71,406v-1.68c-.89,1.29-2.09,1.93-3.62,1.93-.67,0-1.3-.13-1.88-.39-.58-.26-1.02-.58-1.3-.97-.28-.39-.48-.87-.6-1.43-.08-.38-.12-.98-.12-1.8v-7.07h1.93v6.33c0,1.01.04,1.69.12,2.04.12.51.38.91.77,1.2s.88.44,1.46.44,1.12-.15,1.63-.45c.51-.3.87-.7,1.08-1.21.21-.51.32-1.25.32-2.23v-6.11h1.93v11.41h-1.73Z"/>
    <path d="m890.11,406.94l1.88.28c.08.58.3,1,.66,1.27.48.36,1.13.54,1.97.54.9,0,1.59-.18,2.07-.54.49-.36.82-.86.99-1.5.1-.39.15-1.22.14-2.48-.84,1-1.9,1.49-3.16,1.49-1.57,0-2.78-.57-3.64-1.7-.86-1.13-1.29-2.49-1.29-4.07,0-1.09.2-2.09.59-3.01.39-.92.96-1.63,1.71-2.13.75-.5,1.63-.75,2.64-.75,1.35,0,2.46.54,3.33,1.63v-1.38h1.78v9.86c0,1.78-.18,3.03-.54,3.78-.36.74-.93,1.33-1.72,1.76-.78.43-1.75.64-2.89.64-1.36,0-2.46-.31-3.3-.92s-1.24-1.53-1.21-2.77Zm1.6-6.85c0,1.5.3,2.59.89,3.28s1.34,1.03,2.23,1.03,1.63-.34,2.23-1.03c.6-.68.9-1.76.9-3.22s-.31-2.45-.93-3.16c-.62-.71-1.37-1.06-2.24-1.06s-1.59.35-2.19,1.05-.9,1.73-.9,3.11Z"/>
    <path d="m902.68,406v-11.41h1.74v1.73c.44-.81.85-1.34,1.23-1.6.38-.26.79-.39,1.24-.39.65,0,1.31.21,1.99.62l-.67,1.79c-.47-.28-.95-.42-1.42-.42-.42,0-.8.13-1.14.38-.34.25-.58.61-.72,1.06-.21.69-.32,1.44-.32,2.26v5.97h-1.93Z"/>
    <path d="m910.04,392.47v-2.22h1.93v2.22h-1.93Zm0,13.52v-11.41h1.93v11.41h-1.93Z"/>
    <path d="m915.38,406v-9.9h-1.71v-1.5h1.71v-1.21c0-.77.07-1.34.2-1.71.19-.5.51-.91.98-1.22.47-.31,1.13-.47,1.97-.47.54,0,1.15.06,1.8.19l-.29,1.69c-.4-.07-.78-.11-1.14-.11-.59,0-1,.13-1.25.38-.24.25-.37.72-.37,1.41v1.05h2.22v1.5h-2.22v9.9h-1.92Z"/>
    <path d="m921.09,406v-9.9h-1.71v-1.5h1.71v-1.21c0-.77.07-1.34.2-1.71.19-.5.51-.91.98-1.22.47-.31,1.13-.47,1.97-.47.54,0,1.15.06,1.8.19l-.29,1.69c-.4-.07-.78-.11-1.14-.11-.59,0-1,.13-1.25.38-.24.25-.37.72-.37,1.41v1.05h2.22v1.5h-2.22v9.9h-1.92Z"/>
    <path d="m925.97,402.59l1.91-.3c.11.77.41,1.35.9,1.76.49.41,1.18.61,2.06.61s1.55-.18,1.98-.54c.43-.36.64-.79.64-1.27,0-.44-.19-.78-.57-1.03-.26-.17-.92-.39-1.98-.66-1.42-.36-2.4-.67-2.95-.93-.55-.26-.96-.62-1.25-1.08-.28-.46-.42-.97-.42-1.53,0-.51.12-.98.35-1.41.23-.43.55-.79.95-1.08.3-.22.71-.41,1.23-.56.52-.15,1.08-.23,1.67-.23.9,0,1.68.13,2.36.39.68.26,1.18.61,1.5,1.05s.54,1.03.67,1.77l-1.89.26c-.09-.59-.33-1.05-.75-1.38-.41-.33-.99-.49-1.75-.49-.89,0-1.52.15-1.9.44-.38.29-.57.64-.57,1.03,0,.25.08.48.24.68.16.21.4.38.74.52.19.07.76.24,1.71.49,1.37.37,2.32.66,2.86.9.54.23.97.57,1.27,1.02.31.44.46,1,.46,1.65s-.19,1.25-.56,1.82c-.38.57-.92,1.01-1.63,1.32s-1.51.47-2.41.47c-1.48,0-2.61-.31-3.39-.92-.78-.62-1.27-1.53-1.49-2.74Z"/>
    <path d="m937.74,406v-11.41h1.73v1.6c.36-.56.83-1.01,1.43-1.35.59-.34,1.27-.51,2.03-.51.84,0,1.54.18,2.08.53.54.35.92.84,1.14,1.47.9-1.33,2.08-2,3.52-2,1.13,0,2,.31,2.61.94.61.63.91,1.59.91,2.9v7.83h-1.92v-7.19c0-.77-.06-1.33-.19-1.67-.12-.34-.35-.61-.68-.82-.33-.21-.72-.31-1.16-.31-.8,0-1.47.27-2,.8-.53.53-.79,1.39-.79,2.56v6.63h-1.93v-7.41c0-.86-.16-1.5-.47-1.93s-.83-.64-1.55-.64c-.54,0-1.05.14-1.51.43-.46.29-.8.71-1,1.26-.21.55-.31,1.35-.31,2.38v5.92h-1.93Z"/>
    <path d="m955.35,400.29c0-2.11.59-3.68,1.76-4.69.98-.84,2.18-1.27,3.59-1.27,1.57,0,2.85.51,3.85,1.54,1,1.03,1.49,2.45,1.49,4.26,0,1.47-.22,2.62-.66,3.46-.44.84-1.08,1.5-1.92,1.96-.84.47-1.76.7-2.76.7-1.6,0-2.89-.51-3.87-1.54-.98-1.02-1.48-2.5-1.48-4.43Zm1.99,0c0,1.46.32,2.56.96,3.28.64.73,1.44,1.09,2.41,1.09s1.76-.37,2.4-1.1.96-1.84.96-3.34c0-1.41-.32-2.48-.96-3.21-.64-.73-1.44-1.09-2.39-1.09s-1.77.36-2.41,1.08c-.64.72-.96,1.82-.96,3.28Zm.34-7.94v-2.2h2.02v2.2h-2.02Zm4.01,0v-2.2h2.02v2.2h-2.02Z"/>
    <path d="m967.95,406.94l1.88.28c.08.58.3,1,.66,1.27.48.36,1.13.54,1.97.54.9,0,1.59-.18,2.07-.54.49-.36.82-.86.99-1.5.1-.39.15-1.22.14-2.48-.84,1-1.9,1.49-3.16,1.49-1.57,0-2.78-.57-3.64-1.7-.86-1.13-1.29-2.49-1.29-4.07,0-1.09.2-2.09.59-3.01.39-.92.96-1.63,1.71-2.13.75-.5,1.63-.75,2.64-.75,1.35,0,2.46.54,3.33,1.63v-1.38h1.78v9.86c0,1.78-.18,3.03-.54,3.78-.36.74-.93,1.33-1.72,1.76-.78.43-1.75.64-2.89.64-1.36,0-2.46-.31-3.3-.92s-1.24-1.53-1.21-2.77Zm1.6-6.85c0,1.5.3,2.59.89,3.28s1.34,1.03,2.23,1.03,1.63-.34,2.23-1.03c.6-.68.9-1.76.9-3.22s-.31-2.45-.93-3.16c-.62-.71-1.37-1.06-2.24-1.06s-1.59.35-2.19,1.05-.9,1.73-.9,3.11Z"/>
    <path d="m980.5,406v-15.75h1.93v15.75h-1.93Z"/>
    <path d="m985.44,392.47v-2.22h1.93v2.22h-1.93Zm0,13.52v-11.41h1.93v11.41h-1.93Z"/>
    <path d="m997.76,401.82l1.9.25c-.21,1.31-.74,2.34-1.59,3.08-.86.74-1.91,1.11-3.15,1.11-1.56,0-2.82-.51-3.76-1.53-.95-1.02-1.42-2.48-1.42-4.39,0-1.23.2-2.31.61-3.23s1.03-1.62,1.86-2.08c.83-.46,1.74-.69,2.72-.69,1.24,0,2.25.31,3.04.94.79.63,1.29,1.52,1.51,2.67l-1.88.29c-.18-.77-.5-1.34-.95-1.73-.46-.39-1-.58-1.65-.58-.97,0-1.77.35-2.37,1.05s-.91,1.8-.91,3.31.29,2.65.88,3.34c.59.69,1.35,1.04,2.3,1.04.76,0,1.39-.23,1.9-.7.51-.47.83-1.18.97-2.15Z"/>
    <path d="m1001.31,406v-15.75h1.93v5.65c.9-1.05,2.04-1.57,3.42-1.57.84,0,1.58.17,2.2.5s1.07.79,1.34,1.38c.27.59.4,1.44.4,2.56v7.23h-1.93v-7.23c0-.97-.21-1.67-.63-2.11-.42-.44-1.01-.66-1.78-.66-.57,0-1.11.15-1.62.45-.5.3-.86.7-1.08,1.21-.21.51-.32,1.21-.32,2.11v6.24h-1.93Z"/>
    <path d="m1012.8,401.27v-1.94h5.94v1.94h-5.94Z"/>
    <path d="m665.47,432.4v-15.75h1.93v8.98l4.58-4.64h2.5l-4.36,4.23,4.8,7.18h-2.38l-3.77-5.83-1.36,1.31v4.52h-1.93Z"/>
    <path d="m684.27,428.72l2,.25c-.32,1.17-.9,2.07-1.75,2.72s-1.94.97-3.27.97c-1.67,0-2.99-.51-3.97-1.54-.98-1.03-1.47-2.47-1.47-4.32s.49-3.41,1.48-4.47c.99-1.06,2.27-1.59,3.85-1.59s2.77.52,3.74,1.56c.97,1.04,1.45,2.5,1.45,4.38,0,.11,0,.29-.01.52h-8.51c.07,1.25.43,2.21,1.06,2.88s1.43,1,2.38,1c.71,0,1.31-.19,1.82-.56.5-.37.9-.97,1.19-1.78Zm-6.35-3.13h6.37c-.09-.96-.33-1.68-.73-2.16-.62-.74-1.41-1.12-2.4-1.12-.89,0-1.63.3-2.24.89-.61.59-.94,1.39-1,2.38Z"/>
    <path d="m688.71,418.87v-2.22h1.93v2.22h-1.93Zm0,13.52v-11.41h1.93v11.41h-1.93Z"/>
    <path d="m697.8,430.67l.28,1.71c-.54.11-1.03.17-1.46.17-.7,0-1.25-.11-1.63-.33s-.66-.51-.82-.88c-.16-.36-.24-1.12-.24-2.28v-6.56h-1.42v-1.5h1.42v-2.83l1.92-1.16v3.99h1.94v1.5h-1.94v6.67c0,.55.03.91.1,1.06.07.16.18.28.33.38.15.09.38.14.66.14.21,0,.5-.02.85-.08Z"/>
    <path d="m707.5,428.72l2,.25c-.32,1.17-.9,2.07-1.75,2.72s-1.94.97-3.27.97c-1.67,0-2.99-.51-3.97-1.54-.98-1.03-1.47-2.47-1.47-4.32s.49-3.41,1.48-4.47c.99-1.06,2.27-1.59,3.85-1.59s2.77.52,3.74,1.56c.97,1.04,1.45,2.5,1.45,4.38,0,.11,0,.29-.01.52h-8.51c.07,1.25.43,2.21,1.06,2.88s1.43,1,2.38,1c.71,0,1.31-.19,1.82-.56.5-.37.9-.97,1.19-1.78Zm-6.35-3.13h6.37c-.09-.96-.33-1.68-.73-2.16-.62-.74-1.41-1.12-2.4-1.12-.89,0-1.63.3-2.24.89-.61.59-.94,1.39-1,2.38Z"/>
    <path d="m711.93,432.4v-11.41h1.74v1.62c.84-1.25,2.05-1.88,3.63-1.88.69,0,1.32.12,1.9.37.58.25,1.01.57,1.29.97.29.4.49.88.6,1.43.07.36.11.98.11,1.88v7.01h-1.93v-6.94c0-.79-.08-1.38-.23-1.77-.15-.39-.42-.7-.8-.93-.38-.23-.83-.35-1.35-.35-.82,0-1.53.26-2.13.78-.6.52-.9,1.51-.9,2.98v6.23h-1.93Z"/>
  </g>
  <circle class="cls-1" cx="652.55" cy="330.32" r="5.55"/>
  <circle class="cls-1" cx="652.55" cy="397.68" r="5.55"/>
  <circle class="cls-1" cx="847.23" cy="689.6" r="5.55"/>
  <circle class="cls-1" cx="754.74" cy="547.33" r="5.55"/>
  <circle class="cls-1" cx="754.74" cy="505.72" r="5.55"/>
  <text class="cls-2" transform="translate(763.62 514.5)"><tspan x="0" y="0">Interaktive Berichte</tspan><tspan x="0" y="41.4">Einfache Berichterstel</tspan><tspan x="214" y="41.4">-</tspan><tspan x="0" y="67.8">lungswerkzeuge</tspan></text>
  <text class="cls-2" transform="translate(857.16 697.68)"><tspan x="0" y="0">Statistische </tspan><tspan x="0" y="26.4">Berichte</tspan></text>
  <g>
    <line class="cls-4" x1="93.16" y1="785.06" x2="93.16" y2="323.18"/>
    <polygon class="cls-7" points="93.16 294.94 109.42 334.73 93.16 325.29 76.9 334.73 93.16 294.94"/>
  </g>
  <g>
    <line class="cls-4" x1="182" y1="758.6" x2="182" y2="296.71"/>
    <polygon class="cls-7" points="182 786.84 198.27 747.04 182 756.48 165.75 747.04 182 786.84"/>
  </g>
  <text class="cls-2" transform="translate(172.9 744.17) rotate(-90)"><tspan x="0" y="0">Grad der Detailiertheit in der Berichterstattung</tspan></text>
  <text class="cls-2" transform="translate(83.89 658.97) rotate(-90)"><tspan x="0" y="0">Grad der Interaktivität</tspan></text>
  <line class="cls-5" x1="1032.52" y1="620.93" x2="1032.52" y2="580.47"/>
  <line class="cls-5" x1="1032.52" y1="459.48" x2="1032.52" y2="421.81"/>
</svg>