<svg aria-roledescription="flowchart-v2" role="graphics-document document" viewBox="-8 -8 677.0958251953125 815" style="max-width: 100%;" xmlns="http://www.w3.org/2000/svg" width="100%" id="graph-div" height="100%" xmlns:xlink="http://www.w3.org/1999/xlink"><style>@import url("https://cdnjs.cloudflare.com/ajax/libs/font-awesome/6.5.1/css/all.min.css");'</style><style>#graph-div{font-family:"trebuchet ms",verdana,arial,sans-serif;font-size:16px;fill:#fff;}#graph-div .error-icon{fill:#ffaf4d;}#graph-div .error-text{fill:#0050b2;stroke:#0050b2;}#graph-div .edge-thickness-normal{stroke-width:2px;}#graph-div .edge-thickness-thick{stroke-width:3.5px;}#graph-div .edge-pattern-solid{stroke-dasharray:0;}#graph-div .edge-pattern-dashed{stroke-dasharray:3;}#graph-div .edge-pattern-dotted{stroke-dasharray:2;}#graph-div .marker{fill:darkorange;stroke:darkorange;}#graph-div .marker.cross{stroke:darkorange;}#graph-div svg{font-family:"trebuchet ms",verdana,arial,sans-serif;font-size:16px;}#graph-div .label{font-family:"trebuchet ms",verdana,arial,sans-serif;color:#fff;}#graph-div .cluster-label text{fill:#0050b2;}#graph-div .cluster-label span,#graph-div p{color:#0050b2;}#graph-div .label text,#graph-div span,#graph-div p{fill:#fff;color:#fff;}#graph-div .node rect,#graph-div .node circle,#graph-div .node ellipse,#graph-div .node polygon,#graph-div .node path{fill:#000;stroke:#fff;stroke-width:1px;}#graph-div .flowchart-label text{text-anchor:middle;}#graph-div .node .label{text-align:center;}#graph-div .node.clickable{cursor:pointer;}#graph-div .arrowheadPath{fill:#0b0b0b;}#graph-div .edgePath .path{stroke:darkorange;stroke-width:2.0px;}#graph-div .flowchart-link{stroke:darkorange;fill:none;}#graph-div .edgeLabel{background-color:#b36200;text-align:center;}#graph-div .edgeLabel rect{opacity:0.5;background-color:#b36200;fill:#b36200;}#graph-div .labelBkg{background-color:rgba(179, 98, 0, 0.5);}#graph-div .cluster rect{fill:#ffaf4d;stroke:hsl(33.0337078652, 60%, 55.0980392157%);stroke-width:1px;}#graph-div .cluster text{fill:#0050b2;}#graph-div .cluster span,#graph-div p{color:#0050b2;}#graph-div div.mermaidTooltip{position:absolute;text-align:center;max-width:200px;padding:2px;font-family:"trebuchet ms",verdana,arial,sans-serif;font-size:12px;background:#ffaf4d;border:1px solid hsl(33.0337078652, 60%, 55.0980392157%);border-radius:2px;pointer-events:none;z-index:100;}#graph-div .flowchartTitleText{text-anchor:middle;font-size:18px;fill:#fff;}#graph-div :root{--mermaid-font-family:"trebuchet ms",verdana,arial,sans-serif;}</style><g><marker orient="auto" markerHeight="12" markerWidth="12" markerUnits="userSpaceOnUse" refY="5" refX="6" viewBox="0 0 10 10" class="marker flowchart" id="graph-div_flowchart-pointEnd"><path style="stroke-width: 1px; stroke-dasharray: 1px, 0px;" class="arrowMarkerPath" d="M 0 0 L 10 5 L 0 10 z"></path></marker><marker orient="auto" markerHeight="12" markerWidth="12" markerUnits="userSpaceOnUse" refY="5" refX="4.5" viewBox="0 0 10 10" class="marker flowchart" id="graph-div_flowchart-pointStart"><path style="stroke-width: 1px; stroke-dasharray: 1px, 0px;" class="arrowMarkerPath" d="M 0 5 L 10 10 L 10 0 z"></path></marker><marker orient="auto" markerHeight="11" markerWidth="11" markerUnits="userSpaceOnUse" refY="5" refX="11" viewBox="0 0 10 10" class="marker flowchart" id="graph-div_flowchart-circleEnd"><circle style="stroke-width: 1px; stroke-dasharray: 1px, 0px;" class="arrowMarkerPath" r="5" cy="5" cx="5"></circle></marker><marker orient="auto" markerHeight="11" markerWidth="11" markerUnits="userSpaceOnUse" refY="5" refX="-1" viewBox="0 0 10 10" class="marker flowchart" id="graph-div_flowchart-circleStart"><circle style="stroke-width: 1px; stroke-dasharray: 1px, 0px;" class="arrowMarkerPath" r="5" cy="5" cx="5"></circle></marker><marker orient="auto" markerHeight="11" markerWidth="11" markerUnits="userSpaceOnUse" refY="5.2" refX="12" viewBox="0 0 11 11" class="marker cross flowchart" id="graph-div_flowchart-crossEnd"><path style="stroke-width: 2px; stroke-dasharray: 1px, 0px;" class="arrowMarkerPath" d="M 1,1 l 9,9 M 10,1 l -9,9"></path></marker><marker orient="auto" markerHeight="11" markerWidth="11" markerUnits="userSpaceOnUse" refY="5.2" refX="-1" viewBox="0 0 11 11" class="marker cross flowchart" id="graph-div_flowchart-crossStart"><path style="stroke-width: 2px; stroke-dasharray: 1px, 0px;" class="arrowMarkerPath" d="M 1,1 l 9,9 M 10,1 l -9,9"></path></marker><g class="root"><g class="clusters"></g><g class="edgePaths"><path marker-end="url(#graph-div_flowchart-pointEnd)" style="fill:none;" class="edge-thickness-normal edge-pattern-solid flowchart-link LS-pull LE-checkout" id="L-pull-checkout-0" d="M465.654,39L465.654,45.167C465.654,51.333,465.654,63.667,465.654,75.117C465.654,86.567,465.654,97.133,465.654,102.417L465.654,107.7"></path><path marker-end="url(#graph-div_flowchart-pointEnd)" style="fill:none;" class="edge-thickness-normal edge-pattern-solid flowchart-link LS-checkout LE-dbus" id="L-checkout-dbus-0" d="M405.001,152L392.042,156.167C379.082,160.333,353.162,168.667,340.202,176.117C327.242,183.567,327.242,190.133,327.242,193.417L327.242,196.7"></path><path marker-end="url(#graph-div_flowchart-pointEnd)" style="fill:none;" class="edge-thickness-normal edge-pattern-solid flowchart-link LS-dbus LE-add" id="L-dbus-add-0" d="M244.509,241L226.831,245.167C209.153,249.333,173.797,257.667,156.12,265.117C138.442,272.567,138.442,279.133,138.442,282.417L138.442,285.7"></path><path marker-end="url(#graph-div_flowchart-pointEnd)" style="fill:none;" class="edge-thickness-normal edge-pattern-solid flowchart-link LS-add LE-diff" id="L-add-diff-0" d="M138.442,330L138.442,334.167C138.442,338.333,138.442,346.667,138.442,354.117C138.442,361.567,138.442,368.133,138.442,371.417L138.442,374.7"></path><path marker-end="url(#graph-div_flowchart-pointEnd)" style="fill:none;" class="edge-thickness-normal edge-pattern-solid flowchart-link LS-diff LE-commit" id="L-diff-commit-0" d="M138.442,419L138.442,425.167C138.442,431.333,138.442,443.667,138.442,455.117C138.442,466.567,138.442,477.133,138.442,482.417L138.442,487.7"></path><path marker-end="url(#graph-div_flowchart-pointEnd)" style="fill:none;" class="edge-thickness-normal edge-pattern-solid flowchart-link LS-commit LE-fetchAndRebase" id="L-commit-fetchAndRebase-0" d="M138.442,532L138.442,536.167C138.442,540.333,138.442,548.667,143.752,556.498C149.063,564.33,159.685,571.66,164.995,575.325L170.306,578.99"></path><path marker-end="url(#graph-div_flowchart-pointEnd)" style="fill:none;" class="edge-thickness-normal edge-pattern-solid flowchart-link LS-fetchAndRebase LE-dbus" id="L-fetchAndRebase-dbus-0" d="M257.401,582L269.041,577.833C280.681,573.667,303.961,565.333,315.602,553.75C327.242,542.167,327.242,527.333,327.242,510.5C327.242,493.667,327.242,474.833,327.242,456C327.242,437.167,327.242,418.333,327.242,401.5C327.242,384.667,327.242,369.833,327.242,355C327.242,340.167,327.242,325.333,327.242,310.5C327.242,295.667,327.242,280.833,327.242,270.133C327.242,259.433,327.242,252.867,327.242,249.583L327.242,246.3"></path><path marker-end="url(#graph-div_flowchart-pointEnd)" style="fill:none;" class="edge-thickness-normal edge-pattern-solid flowchart-link LS-fetchAndRebase LE-push" id="L-fetchAndRebase-push-0" d="M202.925,621L202.925,625.167C202.925,629.333,202.925,637.667,202.925,645.117C202.925,652.567,202.925,659.133,202.925,662.417L202.925,665.7"></path><path marker-end="url(#graph-div_flowchart-pointEnd)" style="fill:none;" class="edge-thickness-normal edge-pattern-solid flowchart-link LS-push LE-pr" id="L-push-pr-0" d="M202.925,710L202.925,714.167C202.925,718.333,202.925,726.667,223.978,734.835C245.031,743.003,287.136,751.007,308.189,755.009L329.242,759.01"></path><path marker-end="url(#graph-div_flowchart-pointEnd)" style="fill:none;" class="edge-thickness-normal edge-pattern-solid flowchart-link LS-pr LE-checkout" id="L-pr-checkout-0" d="M497.214,760L510.072,755.833C522.93,751.667,548.646,743.333,561.504,731.75C574.362,720.167,574.362,705.333,574.362,690.5C574.362,675.667,574.362,660.833,574.362,646C574.362,631.167,574.362,616.333,574.362,601.5C574.362,586.667,574.362,571.833,574.362,557C574.362,542.167,574.362,527.333,574.362,510.5C574.362,493.667,574.362,474.833,574.362,456C574.362,437.167,574.362,418.333,574.362,401.5C574.362,384.667,574.362,369.833,574.362,355C574.362,340.167,574.362,325.333,574.362,310.5C574.362,295.667,574.362,280.833,574.362,266C574.362,251.167,574.362,236.333,574.362,221.5C574.362,206.667,574.362,191.833,565.001,180.585C555.64,169.336,536.918,161.672,527.557,157.84L518.195,154.008"></path><path marker-end="url(#graph-div_flowchart-pointEnd)" style="fill:none;" class="edge-thickness-normal edge-pattern-solid flowchart-link LS-pr LE-dbus" id="L-pr-dbus-0" d="M450.147,760L452.948,755.833C455.749,751.667,461.352,743.333,464.153,731.75C466.954,720.167,466.954,705.333,466.954,690.5C466.954,675.667,466.954,660.833,466.954,646C466.954,631.167,466.954,616.333,466.954,601.5C466.954,586.667,466.954,571.833,466.954,557C466.954,542.167,466.954,527.333,466.954,510.5C466.954,493.667,466.954,474.833,466.954,456C466.954,437.167,466.954,418.333,466.954,401.5C466.954,384.667,466.954,369.833,466.954,355C466.954,340.167,466.954,325.333,466.954,310.5C466.954,295.667,466.954,280.833,454.714,269.518C442.474,258.203,417.994,250.406,405.754,246.507L393.514,242.608"></path></g><g class="edgeLabels"><g transform="translate(465.6541557312012, 76)" class="edgeLabel"><g transform="translate(-127.66666412353516, -12)" class="label"><foreignObject height="24" width="255.3333282470703"><div xmlns="http://www.w3.org/1999/xhtml" style="display: inline-block; white-space: nowrap;"><span class="edgeLabel">Holt die Aenderungen vom Remote.</span></div></foreignObject></g></g><g class="edgeLabel"><g transform="translate(0, 0)" class="label"><foreignObject height="0" width="0"><div xmlns="http://www.w3.org/1999/xhtml" style="display: inline-block; white-space: nowrap;"><span class="edgeLabel"></span></div></foreignObject></g></g><g class="edgeLabel"><g transform="translate(0, 0)" class="label"><foreignObject height="0" width="0"><div xmlns="http://www.w3.org/1999/xhtml" style="display: inline-block; white-space: nowrap;"><span class="edgeLabel"></span></div></foreignObject></g></g><g class="edgeLabel"><g transform="translate(0, 0)" class="label"><foreignObject height="0" width="0"><div xmlns="http://www.w3.org/1999/xhtml" style="display: inline-block; white-space: nowrap;"><span class="edgeLabel"></span></div></foreignObject></g></g><g class="edgeLabel"><g transform="translate(0, 0)" class="label"><foreignObject height="0" width="0"><div xmlns="http://www.w3.org/1999/xhtml" style="display: inline-block; white-space: nowrap;"><span class="edgeLabel"></span></div></foreignObject></g></g><g class="edgeLabel"><g transform="translate(0, 0)" class="label"><foreignObject height="0" width="0"><div xmlns="http://www.w3.org/1999/xhtml" style="display: inline-block; white-space: nowrap;"><span class="edgeLabel"></span></div></foreignObject></g></g><g transform="translate(327.24166107177734, 399.5)" class="edgeLabel"><g transform="translate(-90.00833129882812, -12)" class="label"><foreignObject height="24" width="180.01666259765625"><div xmlns="http://www.w3.org/1999/xhtml" style="display: inline-block; white-space: nowrap;"><span class="edgeLabel">Feature-Commit-Schleife</span></div></foreignObject></g></g><g class="edgeLabel"><g transform="translate(0, 0)" class="label"><foreignObject height="0" width="0"><div xmlns="http://www.w3.org/1999/xhtml" style="display: inline-block; white-space: nowrap;"><span class="edgeLabel"></span></div></foreignObject></g></g><g class="edgeLabel"><g transform="translate(0, 0)" class="label"><foreignObject height="0" width="0"><div xmlns="http://www.w3.org/1999/xhtml" style="display: inline-block; white-space: nowrap;"><span class="edgeLabel"></span></div></foreignObject></g></g><g transform="translate(574.3624877929688, 456)" class="edgeLabel"><g transform="translate(-86.73332977294922, -12)" class="label"><foreignObject height="24" width="173.46665954589844"><div xmlns="http://www.w3.org/1999/xhtml" style="display: inline-block; white-space: nowrap;"><span class="edgeLabel">Feature-Branch-Schleife</span></div></foreignObject></g></g><g transform="translate(466.9541549682617, 512.5)" class="edgeLabel"><g transform="translate(-87.40833282470703, -12)" class="label"><foreignObject height="24" width="174.81666564941406"><div xmlns="http://www.w3.org/1999/xhtml" style="display: inline-block; white-space: nowrap;"><span class="edgeLabel">Feature-Review-Schleife</span></div></foreignObject></g></g></g><g class="nodes"><g transform="translate(465.6541557312012, 19.5)" data-id="pull" data-node="true" id="flowchart-pull-22813" class="node default default flowchart-label"><rect height="39" width="65.86666870117188" y="-19.5" x="-32.93333435058594" ry="0" rx="0" style="" class="basic label-container"></rect><g transform="translate(-25.433334350585938, -12)" style="" class="label"><rect></rect><foreignObject height="24" width="50.866668701171875"><div xmlns="http://www.w3.org/1999/xhtml" style="display: inline-block; white-space: nowrap;"><span class="nodeLabel">git pull</span></div></foreignObject></g></g><g transform="translate(465.6541557312012, 132.5)" data-id="checkout" data-node="true" id="flowchart-checkout-22814" class="node default default flowchart-label"><rect height="39" width="195.26666259765625" y="-19.5" x="-97.63333129882812" ry="0" rx="0" style="" class="basic label-container"></rect><g transform="translate(-90.13333129882812, -12)" style="" class="label"><rect></rect><foreignObject height="24" width="180.26666259765625"><div xmlns="http://www.w3.org/1999/xhtml" style="display: inline-block; white-space: nowrap;"><span class="nodeLabel">git checkout -b feature-x</span></div></foreignObject></g></g><g transform="translate(327.24166107177734, 221.5)" data-id="dbus" data-node="true" id="flowchart-dbus-22816" class="node default default flowchart-label"><rect height="39" width="264.48333740234375" y="-19.5" x="-132.24166870117188" ry="5" rx="5" style="" class="basic label-container"></rect><g transform="translate(-124.74166870117188, -12)" style="" class="label"><rect></rect><foreignObject height="24" width="249.48333740234375"><div xmlns="http://www.w3.org/1999/xhtml" style="display: inline-block; white-space: nowrap;"><span class="nodeLabel">Dateien bearbeiten und speichern.</span></div></foreignObject></g></g><g transform="translate(138.44166564941406, 310.5)" data-id="add" data-node="true" id="flowchart-add-22818" class="node default default flowchart-label"><rect height="39" width="75.69999694824219" y="-19.5" x="-37.849998474121094" ry="0" rx="0" style="" class="basic label-container"></rect><g transform="translate(-30.349998474121094, -12)" style="" class="label"><rect></rect><foreignObject height="24" width="60.69999694824219"><div xmlns="http://www.w3.org/1999/xhtml" style="display: inline-block; white-space: nowrap;"><span class="nodeLabel">git add .</span></div></foreignObject></g></g><g transform="translate(138.44166564941406, 399.5)" data-id="diff" data-node="true" id="flowchart-diff-22820" class="node default default flowchart-label"><rect height="39" width="127.58332824707031" y="-19.5" x="-63.791664123535156" ry="0" rx="0" style="" class="basic label-container"></rect><g transform="translate(-56.291664123535156, -12)" style="" class="label"><rect></rect><foreignObject height="24" width="112.58332824707031"><div xmlns="http://www.w3.org/1999/xhtml" style="display: inline-block; white-space: nowrap;"><span class="nodeLabel">git diff --staged</span></div></foreignObject></g></g><g transform="translate(138.44166564941406, 512.5)" data-id="commit" data-node="true" id="flowchart-commit-22822" class="node default default flowchart-label"><rect height="39" width="276.8833312988281" y="-19.5" x="-138.44166564941406" ry="0" rx="0" style="" class="basic label-container"></rect><g transform="translate(-130.94166564941406, -12)" style="" class="label"><rect></rect><foreignObject height="24" width="261.8833312988281"><div xmlns="http://www.w3.org/1999/xhtml" style="display: inline-block; white-space: nowrap;"><span class="nodeLabel">git commit -m 'Teil XV von feature-x'</span></div></foreignObject></g></g><g transform="translate(202.92499542236328, 601.5)" data-id="fetchAndRebase" data-node="true" id="flowchart-fetchAndRebase-22824" class="node default default flowchart-label"><rect height="39" width="268.8333282470703" y="-19.5" x="-134.41666412353516" ry="0" rx="0" style="" class="basic label-container"></rect><g transform="translate(-126.91666412353516, -12)" style="" class="label"><rect></rect><foreignObject height="24" width="253.8333282470703"><div xmlns="http://www.w3.org/1999/xhtml" style="display: inline-block; white-space: nowrap;"><span class="nodeLabel">git fetch &amp;&amp; git rebase origin/main</span></div></foreignObject></g></g><g transform="translate(202.92499542236328, 690.5)" data-id="push" data-node="true" id="flowchart-push-22828" class="node default default flowchart-label"><rect height="39" width="71.66667175292969" y="-19.5" x="-35.833335876464844" ry="0" rx="0" style="" class="basic label-container"></rect><g transform="translate(-28.333335876464844, -12)" style="" class="label"><rect></rect><foreignObject height="24" width="56.66667175292969"><div xmlns="http://www.w3.org/1999/xhtml" style="display: inline-block; white-space: nowrap;"><span class="nodeLabel">git push</span></div></foreignObject></g></g><g transform="translate(437.0374870300293, 779.5)" data-id="pr" data-node="true" id="flowchart-pr-22830" class="node default default flowchart-label"><rect height="39" width="367.3999938964844" y="-19.5" x="-183.6999969482422" ry="5" rx="5" style="" class="basic label-container"></rect><g transform="translate(-176.1999969482422, -12)" style="" class="label"><rect></rect><foreignObject height="24" width="352.3999938964844"><div xmlns="http://www.w3.org/1999/xhtml" style="display: inline-block; white-space: nowrap;"><span class="nodeLabel">Pull Request erstellen und Reviewprozess starten</span></div></foreignObject></g></g></g></g></g></svg>